<svg xmlns="http://www.w3.org/2000/svg" viewBox="0 0 16 16" fill="#000000" id="Map-Pin--Streamline-Phosphor" height="16" width="16"><desc>Map Pin Streamline Icon: https://streamlinehq.com</desc><path d="M8 3.52003125c-2.1554625 -0.00009375 -3.50260625 2.3332 -2.42495625 4.1999375 1.07764375 1.86673125 3.771975 1.86685 4.8497875 0.00021875 0.24579375 -0.4256875 0.3752 -0.908575 0.3752 -1.400125 0 -1.5464625 -1.25356875 -2.8001 -2.80003125 -2.80003125Zm0 4.48005c-1.293275 0.00005625 -2.1015625 -1.399925 -1.454975 -2.5199625 0.6465875 -1.1200375 2.2631875 -1.1201125 2.909875 -0.00013125 0.147475 0.2554125 0.22511875 0.54514375 0.22511875 0.840075 0 0.92781875 -0.7522 1.679975 -1.68001875 1.68001875ZM8 0.16c-3.40050625 0.00385625 -6.15620625 2.75955625 -6.1600625 6.1600625 0 2.19801875 1.0157125 4.52764375 2.94003125 6.73756875 0.8646625 0.99860625 1.8378375 1.89781875 2.90153125 2.681025 0.1928875 0.135125 0.4497125 0.135125 0.64260625 0 1.06173125 -0.78353125 2.0330125 -1.6827375 2.895925 -2.681025 1.92151875 -2.209925 2.94003125 -4.53955 2.94003125 -6.73756875C14.15620625 2.91955625 11.40050625 0.16385625 8 0.16Zm0 14.42014375c-1.1571125 -0.91000625 -5.04005 -4.25254375 -5.04005 -8.26008125 0 -3.87983125 4.20004375 -6.30473125 7.560075 -4.3648125 1.5594 0.90031875 2.520025 2.564175 2.520025 4.3648125 0 4.0061375 -3.8829375 7.350075 -5.04005 8.26008125Z" stroke-width="0.0625"></path></svg>