<svg xmlns="http://www.w3.org/2000/svg" viewBox="0 0 16 16" fill="#000000" id="Eye--Streamline-Phosphor" height="16" width="16"><desc>Eye Streamline Icon: https://streamlinehq.com</desc><path d="M15.456875 7.7975c-0.021875 -0.049375 -0.55125 -1.22375 -1.728125 -2.400625C12.160625 3.82875 10.18 3 8 3S3.839375 3.82875 2.27125 5.396875C1.094375 6.57375 0.5625 7.75 0.543125 7.7975a0.5 0.5 0 0 0 0 0.40625c0.021875 0.049375 0.55125 1.223125 1.728125 2.4C3.839375 12.17125 5.82 13 8 13s4.160625 -0.82875 5.72875 -2.39625c1.176875 -1.176875 1.70625 -2.350625 1.728125 -2.4a0.5 0.5 0 0 0 0 -0.40625ZM8 12c-1.92375 0 -3.604375 -0.699375 -4.995625 -2.078125A8.341875 8.341875 0 0 1 1.5625 8a8.333125 8.333125 0 0 1 1.441875 -1.921875C4.395625 4.699375 6.07625 4 8 4s3.604375 0.699375 4.995625 2.078125A8.34125 8.34125 0 0 1 14.440625 8c-0.450625 0.84125 -2.41375 4 -6.440625 4Zm0 -7a3 3 0 1 0 3 3 3.003125 3.003125 0 0 0 -3 -3Zm0 5a2 2 0 1 1 2 -2 2 2 0 0 1 -2 2Z" stroke-width="0.0625"></path></svg>