<?xml version="1.0" standalone="no"?>
<!DOCTYPE svg PUBLIC "-//W3C//DTD SVG 20010904//EN"
 "http://www.w3.org/TR/2001/REC-SVG-20010904/DTD/svg10.dtd">
<svg version="1.0" xmlns="http://www.w3.org/2000/svg"
 width="1000.000000pt" height="1000.000000pt" viewBox="0 0 1000.000000 1000.000000"
 preserveAspectRatio="xMidYMid meet">

<g transform="translate(0.000000,1000.000000) scale(0.100000,-0.100000)"
fill="#000000" stroke="none">
<path d="M7411 7596 c2 -2 15 -9 29 -15 24 -11 24 -11 6 3 -16 13 -49 24 -35
12z"/>
<path d="M7600 7496 c0 -3 9 -10 20 -16 11 -6 20 -8 20 -6 0 3 -9 10 -20 16
-11 6 -20 8 -20 6z"/>
<path d="M7670 7454 c0 -2 15 -11 33 -20 32 -16 32 -16 12 3 -17 17 -45 27
-45 17z"/>
<path d="M7740 7420 c0 -5 9 -14 20 -20 11 -6 20 -9 20 -8 0 2 -9 11 -20 21
-11 9 -20 13 -20 7z"/>
<path d="M7801 7373 c6 -7 17 -13 24 -13 8 0 15 -3 17 -7 2 -5 48 -38 104 -74
113 -75 182 -129 300 -236 45 -40 84 -73 87 -73 11 0 -16 76 -37 102 -39 49
-219 181 -283 207 -18 7 -38 19 -44 27 -6 8 -18 14 -26 14 -8 0 -21 7 -30 15
-8 9 -20 14 -26 12 -7 -2 -20 5 -31 14 -10 10 -23 16 -28 13 -4 -3 -8 -1 -8 4
0 5 -7 9 -15 9 -11 0 -12 -4 -4 -14z"/>
<path d="M6657 5724 c-16 -19 -52 -47 -82 -62 -57 -29 -155 -104 -175 -136 -7
-11 -7 -16 -1 -11 6 3 11 1 11 -4 0 -12 101 -15 162 -5 33 6 39 12 53 48 8 22
19 63 25 90 6 26 18 62 26 78 22 42 13 43 -19 2z"/>
<path d="M4610 4452 c0 -12 19 -26 26 -19 2 2 -2 10 -11 17 -9 8 -15 8 -15 2z"/>
<path d="M4650 4420 c0 -7 9 -14 20 -17 11 -3 20 -13 20 -22 0 -14 2 -14 10
-1 5 8 10 10 10 4 0 -10 80 -48 87 -41 1 2 -16 14 -40 26 -23 12 -57 31 -74
43 -21 12 -33 15 -33 8z"/>
</g>
</svg>
